<svg xmlns="http://www.w3.org/2000/svg" data-name="Layer 1" viewBox="0 0 700 550"><path fill="#f7f9f9" d="M265.281 436.198c-41.003 10.449-44.17 26.848-84.987 37.957-20.238 5.509-67.443 18.356-98.436-7.055-26.079-21.382-26.793-58.472-26.914-64.795-.765-39.71 17.901-49.389 43.862-108.657 12.773-29.16 14.16-48.132 22.064-85.097 5.99-28.009 23.747-53.524 52.369-71.243 45.35-28.074 98.186-10.989 106.994-8.142 44.592 14.419 48.754 40.018 85.73 64.796 84.44 56.586 159.443-12.101 226.287 37.88 44.444 33.233 65.81 104.376 44.534 157.438-25.039 62.44-105.307 90.324-162.164 83.802-47.061-5.398-58.835-32.161-130.588-39.875-22.56-2.424-47.766-4.906-78.75 2.99"/><path fill="#585a66" d="M414.417 435.622H163.752a10.056 10.056 0 0 1-10.026-10.062V258.98a10.056 10.056 0 0 1 10.026-10.061h250.665a10.056 10.056 0 0 1 10.026 10.061v166.58a10.056 10.056 0 0 1-10.026 10.062Zm-239.55-11.18h238.436V260.098H174.866Z"/><path fill="#9fb1c1" d="M255.334 429.978a37.878 37.878 0 0 1-37.879 37.878H361.17a37.878 37.878 0 0 1-37.878-37.878ZM217.455 467.856h158.286a2 2 0 0 1 2 2v10.674H215.455v-10.674a2 2 0 0 1 2-2Z"/><path fill="#d6e4f0" d="M271.63 430.052a37.878 37.878 0 0 1-37.877 37.878h143.714a37.878 37.878 0 0 1-37.878-37.878Z"/><path fill="#ddd" d="M375.287 467.93h2.18c-.768 0-1.528-.03-2.285-.075l.105.075Z"/><path fill="#b1c5da" d="m293.881 445.455 46.403-8.184a38.051 38.051 0 0 1-.695-7.22H271.63a37.878 37.878 0 0 1-37.878 37.879h42.286c-1.585-9.013 1.29-14.087 6.803-18.006a27.114 27.114 0 0 1 11.04-4.469Z"/><path fill="#add4dc" d="M174.707 428.276h248.437V264.51H174.707Z"/><rect width="259.577" height="174.908" x="173.593" y="255.143" fill="#71b8e6" rx="4.456"/><path fill="#4b9dd7" d="M188.633 255.703a255.198 255.198 0 0 0-.624 20.522 248.56 248.56 0 0 0 54.656 153.83H178.05a4.455 4.455 0 0 1-4.456-4.457V259.603a4.456 4.456 0 0 1 4.456-4.457H433.17v.557Z"/><path fill="#32333c" d="M428.714 435.622H178.05a10.038 10.038 0 0 1-10.026-10.027V259.6a10.038 10.038 0 0 1 10.026-10.027h250.665a10.038 10.038 0 0 1 10.027 10.027v165.995a10.038 10.038 0 0 1-10.027 10.027Zm-249.55-11.14H427.6V260.713H179.163Z"/><path fill="#f9f9fc" d="M267.755 307.981h62.342v4.456h-62.342zM267.755 320.875h62.342v4.456h-62.342zM267.755 346.662h62.342v4.456h-62.342zM267.755 359.556h62.342v4.456h-62.342zM285.524 333.769h31.572v4.456h-31.572zM267.754 373.885h62.342v28.83h-62.342z"/><path fill="#f0f0f2" d="M179.163 260.714H427.6v22.677H179.163z"/><path fill="#ddd" d="M179.163 260.714v22.676h9.025a257.783 257.783 0 0 1-.179-7.165 253.85 253.85 0 0 1 .321-15.511Z"/><circle cx="200.308" cy="272.052" r="3.653" fill="#add4dc"/><circle cx="213.643" cy="272.052" r="3.653" fill="#ffcb5c"/><circle cx="226.863" cy="272.052" r="3.653" fill="#ef403a"/><path fill="#ef403a" d="m278.196 393.245-1.448-2.51a45.04 45.04 0 0 1-1.315-2.24h-.033c-.32.656-.64 1.263-1.23 2.257l-1.365 2.493h-1.684l3.47-5.744-3.335-5.61h1.702l1.499 2.661c.42.742.741 1.314 1.044 1.92h.05a24.41 24.41 0 0 1 1.028-1.92l1.55-2.661h1.684l-3.453 5.525 3.537 5.829ZM287.562 393.245l-1.448-2.51c-.59-.96-.96-1.584-1.314-2.24h-.034c-.32.656-.64 1.263-1.23 2.257l-1.364 2.493h-1.685l3.47-5.744-3.335-5.61h1.701l1.5 2.661a40.3 40.3 0 0 1 1.044 1.92h.05a24.41 24.41 0 0 1 1.028-1.92l1.55-2.661h1.685l-3.454 5.525 3.539 5.829ZM296.929 393.245l-1.449-2.51c-.59-.96-.96-1.584-1.314-2.24h-.033c-.32.656-.641 1.263-1.23 2.257l-1.365 2.493h-1.685l3.471-5.744-3.336-5.61h1.702l1.5 2.661c.42.742.74 1.314 1.043 1.92h.051a24.41 24.41 0 0 1 1.027-1.92l1.55-2.661h1.685l-3.453 5.525 3.537 5.829ZM306.295 393.245l-1.448-2.51c-.59-.96-.961-1.584-1.315-2.24h-.033a28.87 28.87 0 0 1-1.23 2.257l-1.365 2.493h-1.684l3.47-5.744-3.336-5.61h1.701l1.5 2.661c.421.742.742 1.314 1.044 1.92h.051a24.41 24.41 0 0 1 1.028-1.92l1.55-2.661h1.684l-3.453 5.525 3.538 5.829ZM315.661 393.245l-1.448-2.51c-.59-.96-.96-1.584-1.315-2.24h-.033c-.32.656-.64 1.263-1.23 2.257l-1.365 2.493h-1.684l3.47-5.744-3.335-5.61h1.702l1.499 2.661c.42.742.74 1.314 1.044 1.92h.05a24.41 24.41 0 0 1 1.028-1.92l1.55-2.661h1.684l-3.453 5.525 3.537 5.829ZM325.027 393.245l-1.448-2.51a44.31 44.31 0 0 1-1.315-2.24h-.033a28.87 28.87 0 0 1-1.23 2.257l-1.364 2.493h-1.685l3.47-5.744-3.335-5.61h1.7l1.5 2.661c.422.742.742 1.314 1.045 1.92h.05c.321-.673.607-1.195 1.028-1.92l1.55-2.661h1.684l-3.453 5.525 3.538 5.829Z"/><path fill="#f29720" d="M192.947 480.53c31.372-4.005 55.853-37.308 55.853-77.8a95.189 95.189 0 0 0-5.477-32.13 21.22 21.22 0 0 1-19.715-13.46h-59.295a21.22 21.22 0 0 1-19.715 13.46 95.189 95.189 0 0 0-5.477 32.13c0 40.492 24.482 73.795 55.854 77.8Z"/><path fill="#ffcb5c" d="M193.068 473.13c27.609-3.525 49.154-32.833 49.154-68.467a83.77 83.77 0 0 0-4.82-28.277 18.675 18.675 0 0 1-17.35-11.845H167.87a18.675 18.675 0 0 1-17.35 11.845 83.77 83.77 0 0 0-4.82 28.277c0 35.634 21.544 64.942 49.153 68.467Z"/><path fill="#f29720" d="M179.572 433.62a24.304 24.304 0 0 0 12.3 3.468c7.016 0 11.116-3.705 11.116-9.067 0-4.966-2.838-7.805-10.013-10.564-8.672-3.075-14.034-7.57-14.034-15.06 0-8.278 6.86-14.427 17.188-14.427a24.153 24.153 0 0 1 11.748 2.601l-1.893 5.598a21.173 21.173 0 0 0-10.092-2.523c-7.253 0-10.012 4.336-10.012 7.963 0 4.967 3.232 7.411 10.564 10.25 8.988 3.469 13.56 7.805 13.56 15.61 0 8.2-6.07 15.296-18.606 15.296-5.125 0-10.722-1.498-13.56-3.39Z"/><path fill="#222328" d="M135.717 480.32h5.386v4h-5.386zM143.983 480.32h13.68v4h-13.68zM161.503 480.32h387.358v4H161.503zM554.302 480.32h9.98v4h-9.98z"/><path fill="#585a66" d="M526.102 468.1a7.829 7.829 0 0 1-7.804 7.804h-65.543a7.83 7.83 0 0 1-7.81-7.804V259.568a7.83 7.83 0 0 1 7.81-7.803h65.543a7.829 7.829 0 0 1 7.804 7.803Zm-5.624-220.96h-89.91a11.626 11.626 0 0 0-11.588 11.594v210.2a11.626 11.626 0 0 0 11.589 11.595h89.91a11.631 11.631 0 0 0 11.594-11.595v-210.2a11.631 11.631 0 0 0-11.595-11.594Z"/><rect width="113.096" height="233.392" x="430.394" y="247.139" fill="#7dcdf9" rx="11.595"/><path fill="#71b8e6" d="M430.394 258.733v210.203a11.629 11.629 0 0 0 11.594 11.594h38.677l9.52-4.626c-38.722-5.851-39.08-224.14-39.08-224.14l-5.711-4.625h-3.406a11.629 11.629 0 0 0-11.594 11.594Z"/><path fill="#32333c" d="M531.895 247.14h-89.91a11.626 11.626 0 0 0-11.588 11.594v210.2a11.626 11.626 0 0 0 11.588 11.595h89.91a11.631 11.631 0 0 0 11.595-11.595v-210.2a11.631 11.631 0 0 0-11.595-11.594Zm5.624 220.96a7.829 7.829 0 0 1-7.804 7.804h-85.543a7.83 7.83 0 0 1-7.81-7.804V259.568a7.83 7.83 0 0 1 7.81-7.803h85.543a7.829 7.829 0 0 1 7.804 7.803Z"/><path fill="#32333c" d="M543.49 277.117h2.087a1.951 1.951 0 0 1 1.952 1.951v16.762a1.951 1.951 0 0 1-1.952 1.95h-2.088v-20.663ZM430.394 316.737h-2.088a1.951 1.951 0 0 1-1.951-1.951v-16.762a1.951 1.951 0 0 1 1.95-1.95h2.089v20.663ZM430.394 345.962h-2.088a1.951 1.951 0 0 1-1.951-1.951v-16.762a1.951 1.951 0 0 1 1.95-1.95h2.089v20.663ZM492.093 258.807H476.99a1.463 1.463 0 1 1 0-2.927h15.103a1.463 1.463 0 1 1 0 2.927Z"/><path fill="#f0f0f2" d="M515.421 262.232h15.103v2.927h-15.103z"/><circle cx="497.855" cy="257.344" r="1.24" fill="#32333c"/><circle cx="486.942" cy="464.549" r="7.551" fill="#32333c"/><path fill="#f0f0f2" d="M443.442 273.432h86.168v11.308h-86.168z"/><path fill="#ddd" d="M451.426 273.432h-7.984v11.308h8.286c-.123-4.07-.222-7.86-.302-11.308Z"/><path fill="#ef403a" d="m528.866 282.883-2.957-3.91a3.254 3.254 0 1 0-1.464 1.116l2.953 3.905Zm-6.68-4.977a1.404 1.404 0 1 1 1.968.272 1.393 1.393 0 0 1-1.968-.272Z"/><path fill="#ffcb5c" d="M451.339 364.046h71.206v34.991h-71.206z"/><path fill="#f29720" d="M456.342 364.046h-5.003v34.99h8.983c-1.583-11.31-2.894-23.148-3.98-34.99Z"/><path fill="#ffcb5c" d="M454.747 416.916h64.389v5.891h-64.389z"/><path fill="#f29720" d="M463.148 416.916h-8.4v5.89h9.503q-.567-2.899-1.103-5.89Z"/><path fill="#ffcb5c" d="M454.747 435.484h64.389v5.891h-64.389zM454.747 303.46h64.389v5.891h-64.389z"/><path fill="#f29720" d="M467.012 435.484h-12.265v5.89h13.784q-.782-2.86-1.519-5.89Z"/><path fill="#ef403a" d="m466.213 387.218-1.449-2.51a45.04 45.04 0 0 1-1.314-2.24h-.033a29.14 29.14 0 0 1-1.23 2.257l-1.365 2.493h-1.685l3.471-5.744-3.336-5.61h1.702l1.5 2.662c.42.741.74 1.314 1.043 1.92h.051c.32-.674.607-1.196 1.027-1.92l1.55-2.662h1.685l-3.453 5.526 3.537 5.828ZM475.579 387.218l-1.448-2.51a44.31 44.31 0 0 1-1.315-2.24h-.033c-.32.656-.64 1.263-1.23 2.257l-1.365 2.493h-1.684l3.47-5.744-3.336-5.61h1.702l1.5 2.662c.42.741.74 1.314 1.044 1.92h.05c.32-.674.607-1.196 1.028-1.92l1.55-2.662h1.684l-3.453 5.526 3.538 5.828ZM484.945 387.218l-1.448-2.51a45.04 45.04 0 0 1-1.315-2.24h-.033a29.14 29.14 0 0 1-1.23 2.257l-1.365 2.493h-1.684l3.47-5.744-3.335-5.61h1.702l1.499 2.662c.42.741.741 1.314 1.044 1.92h.05a24.41 24.41 0 0 1 1.028-1.92l1.55-2.662h1.684l-3.453 5.526 3.537 5.828ZM494.311 387.218l-1.448-2.51a44.31 44.31 0 0 1-1.314-2.24h-.034c-.32.656-.64 1.263-1.23 2.257l-1.364 2.493h-1.685l3.47-5.744-3.335-5.61h1.701l1.5 2.662c.42.741.741 1.314 1.044 1.92h.05c.321-.674.607-1.196 1.028-1.92l1.55-2.662h1.684l-3.453 5.526 3.538 5.828ZM503.677 387.218l-1.448-2.51a45.04 45.04 0 0 1-1.314-2.24h-.033c-.32.656-.641 1.263-1.23 2.257l-1.365 2.493h-1.685l3.471-5.744-3.336-5.61h1.702l1.5 2.662c.42.741.74 1.314 1.043 1.92h.05c.321-.674.607-1.196 1.028-1.92l1.55-2.662h1.685l-3.453 5.526 3.537 5.828ZM513.044 387.218l-1.449-2.51c-.59-.96-.96-1.584-1.314-2.24h-.033c-.32.656-.64 1.263-1.23 2.257l-1.365 2.493h-1.685l3.471-5.744-3.336-5.61h1.701l1.5 2.662c.421.741.742 1.314 1.044 1.92h.051c.32-.674.607-1.196 1.027-1.92l1.55-2.662h1.685l-3.453 5.526 3.538 5.828Z"/><circle cx="389.814" cy="332.309" r="49.79" fill="#ffcb5c"/><path fill="#f29720" d="M361.691 332.309a49.798 49.798 0 0 1 38.956-48.594 49.79 49.79 0 1 0 0 97.187 49.798 49.798 0 0 1-38.956-48.593Z"/><rect width="119.368" height="17.196" x="330.13" y="295.338" fill="#ef403a" rx="8.598"/><rect width="51.358" height="7.399" x="364.135" y="354.957" fill="#ef403a" rx="3.699"/><path fill="#c62831" d="M364.135 358.656a3.7 3.7 0 0 0 3.7 3.7h3.956a49.76 49.76 0 0 1-4.624-7.332 3.695 3.695 0 0 0-3.032 3.632Z"/><path fill="#ef403a" d="M374.1 255.062h31.427a31.803 31.803 0 0 1 31.803 31.803v8.473h-95.032v-8.473a31.803 31.803 0 0 1 31.803-31.803Z"/><path fill="#ef403a" d="M374.1 255.062h31.427a31.803 31.803 0 0 1 31.803 31.803v8.473h-95.032v-8.473a31.803 31.803 0 0 1 31.803-31.803Z"/><path fill="#c62831" d="M398.64 255.062H374.1a31.803 31.803 0 0 0-31.803 31.803v8.473h24.54v-8.473a31.803 31.803 0 0 1 31.802-31.803Z"/><path fill="#ef403a" d="M340.072 330.426h99.484a49.905 49.905 0 0 0-1.019-8.39H341.09a49.905 49.905 0 0 0-1.018 8.39Z"/><path fill="#c62831" d="M341.09 322.037v.004a48.866 48.866 0 0 0-.655 3.968l-.039.301a50.904 50.904 0 0 0-.324 4.116h21.702a49.796 49.796 0 0 1 1.023-8.39Z"/><path fill="#ef403a" d="M375.848 345.899h-14.157v-19.667h28.314v9.833l-14.157 9.834z"/><path fill="#ef403a" d="M418.318 345.899h-14.157l-14.156-9.834v-9.833h28.313v19.667z"/><path fill="#c62831" d="M361.691 326.232v6.077a49.98 49.98 0 0 1 .413-6.077ZM361.691 332.309v13.59h1.906a49.738 49.738 0 0 1-1.906-13.59Z"/><path fill="#f9f9fc" d="m363.399 337.822 12.499-12.499 1.47 1.471-12.498 12.499zM372.027 339.806l12.5-12.499 1.47 1.47-12.499 12.5zM395.536 337.822l12.499-12.499 1.47 1.471-12.498 12.499zM404.164 339.806l12.5-12.499 1.47 1.471-12.499 12.499z"/><path fill="#c62831" d="M370.623 312.534c-3.894-.036-5.307-5.316-2.039-7.434 5.91-3.83 19.417-8.915 49.808-9.762h-79.295a8.848 8.848 0 0 0-8.927 7.753 8.6 8.6 0 0 0 8.558 9.443h31.974ZM418.392 295.338h18.938a355.233 355.233 0 0 0-18.938 0Z"/><path fill="#ef403a" d="M458.859 401.902v75.63a3.002 3.002 0 0 1-3 3h-132.09a3.002 3.002 0 0 1-3-3v-75.63a20.368 20.368 0 0 1 20.37-20.36h33.43l14.95 21.45.34-.32v-.01h.01l.08-.07.06-.07 22.01-20.98h26.47a1.482 1.482 0 0 1 .21.01 20.354 20.354 0 0 1 20.16 20.35Z"/><path fill="#c62831" d="M400.339 480.532h-76.57a3.002 3.002 0 0 1-3-3v-75.63a20.368 20.368 0 0 1 20.37-20.36 180.64 180.64 0 0 0 9.11 46.3c.51 1.46 1.04 2.91 1.6 4.37 8.27 21.49 22.84 42.86 48.49 48.32Z"/><path fill="#b12432" d="m389.945 402.589-.422.402-14.951-21.45h-32.358l47.791 34.789-.06-13.741z"/><path fill="#c62831" d="m389.873 402.657-.059 13.673 48.927-34.646-.043-.143h-26.679l-22.146 21.116z"/><path fill="#c62831" d="m349.845 381.618-2.073-22.628 42.262 22.518-.029 28.066-40.16-27.956z"/><path fill="#ef403a" d="M429.294 381.618v-18.969l-39.26 18.859-.22 28.066 39.48-27.956z"/><path fill="#b12432" d="M351.849 429.802v50.73h-4v-50.73a2 2 0 0 1 2-2 1.75 1.75 0 0 1 .4.04 2.014 2.014 0 0 1 1.6 1.96Z"/><path fill="#c62831" d="M430.379 429.802v50.73h-4v-50.73a2 2 0 0 1 4 0Z"/></svg>