<svg xmlns="http://www.w3.org/2000/svg" xmlns:xlink="http://www.w3.org/1999/xlink" data-name="Layer 1" viewBox="0 0 504.82 570.54"><defs><linearGradient id="a" x1="360.46" x2="361.18" y1="56.77" y2="56.77" gradientUnits="userSpaceOnUse"><stop offset="0" stop-color="#ecc4d7"/><stop offset=".42" stop-color="#efd4d1"/><stop offset="1" stop-color="#f2eac9"/></linearGradient><linearGradient id="c" x1="350.98" x2="389.56" y1="57.04" y2="57.04" xlink:href="#a"/><linearGradient id="b" x1="261.28" x2="252.84" y1="-14.9" y2="775.72" gradientUnits="userSpaceOnUse"><stop offset="0" stop-opacity="0"/><stop offset=".97"/></linearGradient><linearGradient id="d" x1="261.14" x2="252.7" y1="-14.75" y2="775.52" xlink:href="#b"/><linearGradient id="e" x1="334.85" x2="290.78" y1="78.57" y2="85.75" xlink:href="#b"/><linearGradient id="f" x1="354.78" x2="309.54" y1="66.7" y2="83.6" xlink:href="#b"/><linearGradient id="g" x1="297.22" x2="381.01" y1="90.02" y2="61.77" xlink:href="#b"/><linearGradient id="h" x1="325.02" x2="331.87" y1="42.66" y2="48.1" xlink:href="#a"/><linearGradient id="i" x1="331.39" x2="314" y1="46.93" y2="62.35" xlink:href="#b"/><linearGradient id="j" x1="314.32" x2="369.94" y1="73.82" y2="73.82" xlink:href="#a"/><linearGradient id="k" x1="394.85" x2="427.25" y1="33.04" y2="34.98" xlink:href="#b"/><linearGradient id="l" x1="328.9" x2="333.97" y1="20.22" y2="39.93" xlink:href="#a"/><linearGradient id="m" x1="320.24" x2="298.84" y1="69.77" y2="70.71" xlink:href="#b"/><linearGradient id="n" x1="376.37" x2="396.79" y1="42.19" y2="30.36" xlink:href="#a"/><linearGradient id="o" x1="292.46" x2="295.84" y1="405.57" y2="-207.67" xlink:href="#b"/></defs><path fill="#68e1fd" d="M253.95 30.6c30.83-10.81 64.89-7.17 96.62.58 25.84 6.32 51.72 15.67 71.66 33.28 25.23 22.28 38.46 56.23 39.66 89.87s-8.73 67-23.89 97c-5.56 11-12 22.38-11.71 34.74.59 25.07 26.8 40.16 43.61 58.78 18.51 20.5 26.64 48.23 31.82 75.36 2.42 12.66 4.32 25.68 2.14 38.38-2.32 13.47-9.16 25.83-17.68 36.52-23.78 29.8-60.34 47.24-97.66 55.07s-75.84 7-114 6.09l-122.41-2.86c-40.5-.95-84.29-3-115.71-28.61C9.73 503.1-2.98 466.73.61 432.53s22.16-65.86 47.75-88.82c7.92-7.11 16.68-13.67 22.1-22.83 8.68-14.67 7.18-33 5.63-49.93-3.62-39.54-3.83-85 25.32-111.93 23.89-22.08 51-30 70.56-56.85 21.64-29.69 46.18-59.05 81.98-71.57Z" opacity=".25"/><path fill="url(#a)" d="M357.22 55.28c.2-.57 2.3-5 1.92 2.22 0 .25-.93.83-1 1a1.38 1.38 0 0 1-.35.37c-.32.26-.84 1.1-1.18 1.2-.51.16-.51-.69-.5-1.14.02-1.43.64-2.31 1.11-3.65Z" transform="translate(-35.39 -2.4)"/><path fill="url(#c)" d="M384.06 49.44c-1.5 1.77-11.64 42.67-26.35 33.21a53.41 53.41 0 0 1-6.63-4.46c.71-.15-.42-2.33 0-2.91 1.47-2 4.8-2.36 6.27-4.36.17-.24.16-.52.43-.64 2.81 1.09 3.78 2 5.64 1.07s5-7.63 6.09-9.43c4.95-8.36 4.89-7.05 8.21-14.24.4-.87.19-4.59.08-5.54s-1.55-3.21-1.42-4.24c.1-.79 1.5-.82 1.83-.1a3.39 3.39 0 0 0 2.45 1.61.77.77 0 0 0 .47-.17c2.63-2.24 1.87-5.24 3.43-8.15a.8.8 0 0 1 .09-.14c.61-.83 2.74-2.09 4 1.25 2.2 5.8.29 11.47-4.59 17.24Z" transform="translate(-35.39 -2.4)"/><path fill="#161528" d="M311.78 22.6c-1.24 8.79-5.17 17.82-2.17 26.16l-2.87-.67-.06 2.29c-4.08-1-8.32.71-12.53.63-6.32-.12-12.15-4.57-14.65-10.38s-1.87-12.7.91-18.38C284.18 14.6 292.13 7.02 300.9 7c3.2 0 5.43-.1 7.81 2.35 3.47 3.57 3.73 8.6 3.07 13.25Z"/><rect width="265.26" height="454.02" x="124.84" y="116.52" fill="#68e1fd" rx="53.63"/><rect width="236.64" height="428.18" x="139.15" y="127.55" fill="url(#b)" rx="43.68"/><rect width="214.88" height="428.18" x="149.89" y="127.55" fill="url(#d)" rx="41.62"/><path fill="#25233a" d="M356.93 174.6c-3.36.06-12.38 3.66-15.67 3a6.29 6.29 0 0 1-2.51-.93c-.87-.64-1.62-6.87-2.09-7.84q-5.81-11.83-11.59-23.68a209.09 209.09 0 0 1 .22 29.72c-.22 3.46-.29 7.51 2.42 9.66.53.42 4.88 1.16 5.5 1.43 2.67 1.12 3.78 4.11 3.31 4.78-1.21 1.72-13.07 3.08-13.35 2.89-4.6-3.15-7.29-8.39-9.31-13.58a90.37 90.37 0 0 1-5.43-21.58c-.26-2.09-.52-4.35-2-5.88a9.62 9.62 0 0 0-3.48-2 49.28 49.28 0 0 0-9.09-3c-5.44-1-11-.13-16.55-.69-23.46-2.4-22.09-27.62-20.05-30.36h52.21a59.69 59.69 0 0 0 12.3 5.1c5.26 1.4 11.25 1.84 15 5.77 2.64 2.75 3.61 6.67 4.34 10.41a165 165 0 0 1 3 25.45c.1 2.43.32 5.22 2.29 6.65 1.64 1.14 9.03-1.47 10.53 4.68Z" opacity=".33"/><path fill="#161528" d="m312.4 104.1 24.07 12.42 26.43 44.67-6.57 5.27-23.27-29.21-46.66-19.88s10.45-12.77 26-13.27Z"/><path fill="#fff" d="M289.73 240.19v71.41a31.93 31.93 0 1 1-63.86 0v-71.41a31.93 31.93 0 1 1 63.86 0Z"/><path fill="none" stroke="#fff" stroke-linecap="round" stroke-miterlimit="10" stroke-width="7" d="M300.24 311.3a42.36 42.36 0 1 1-84.71 0M257.89 353.66v52.41"/><circle cx="252.89" cy="476.22" r="24.25" fill="none" stroke="#fff" stroke-miterlimit="10"/><circle cx="252.89" cy="476.22" r="15.33" fill="#cc1d1d"/><path fill="#68e1fd" d="M305.4 47.81c4.82 2.59 8.16 7.21 11.33 11.68l5.28 7.43a1.49 1.49 0 0 1 .38 1 1.43 1.43 0 0 1-.4.73l-5.79 7.06c-.33.41-.75.86-1.28.84a1.68 1.68 0 0 1-.92-.46 21.45 21.45 0 0 1-5.58-6.9l4 31.84a8.34 8.34 0 0 1 0 3.11c-.64 2.43-3.26 3.74-5.69 4.35a46.68 46.68 0 0 1-9.14 1l-17.16.73a5.09 5.09 0 0 1-2.27-.25c-1.52-.66-2-2.52-2.3-4.14-1.5-8.36-2.4-16.81-3.31-25.25a63.34 63.34 0 0 1-.53-11.67 51.91 51.91 0 0 1 1.42-8.09c1.33-5.6 3.78-14 10.25-15.52s15.97-.57 21.71 2.51Z"/><path fill="url(#e)" d="M357.78 70.28a1.43 1.43 0 0 1-.4.73l-5.79 7.06c-.33.41-.75.86-1.28.84a1.68 1.68 0 0 1-.92-.46 21.45 21.45 0 0 1-5.58-6.9l4 31.84a8.34 8.34 0 0 1 0 3.11c-.64 2.43-3.26 3.74-5.69 4.35a46.68 46.68 0 0 1-9.14 1l-17.16.73a5.09 5.09 0 0 1-2.27-.25 2.83 2.83 0 0 1-1.14-.91 7.63 7.63 0 0 1-1.15-3.21c-1.5-8.36-2.4-16.81-3.31-25.25a63.34 63.34 0 0 1-.53-11.67 51.91 51.91 0 0 1 1.42-8.09 38.88 38.88 0 0 1 3.26-9.38c1.58-2.94 3.79-5.37 7-6.14 6.39-1.55 16-.53 21.73 2.55 4.82 2.59 8.16 7.21 11.33 11.68l5.28 7.43a1.49 1.49 0 0 1 .34.94Z" transform="translate(-35.39 -2.4)"/><path fill="url(#f)" d="m343.81 71.55-.62-11s8.46 12.42 13.17 11.76c0 0-3.43 5.63-6.05 6.65a17 17 0 0 1-5.15-5.08c-1.69-3-1.35-2.33-1.35-2.33Z" transform="translate(-35.39 -2.4)"/><path fill="url(#g)" d="m325.06 111.85-11.53.48-1.14-.91a7.63 7.63 0 0 1-1.15-3.21c-1.5-8.36-2.4-16.81-3.31-25.25a63.34 63.34 0 0 1-.53-11.67 51.91 51.91 0 0 1 1.42-8.09 38.88 38.88 0 0 1 3.26-9.38l.66 11 4.82 13.51s1.62 32.67 7.5 33.52Z" transform="translate(-35.39 -2.4)"/><path fill="url(#h)" d="M332 41.39a.67.67 0 0 1 .33-.72 8.85 8.85 0 0 0-.4 5 8.76 8.76 0 0 1 .45 2.76c-.2 2-2.62 3.28-4.55 2.74s-4.71-1.61-5.43-3.52c-.46-1.24-1-11.85-.91-12.18.36-.89 2.69 2.29 3.5 2.79s1.38 1.33 2.21 1.8c1.61.91 4 .35 5.09 1.83" transform="translate(-35.39 -2.4)"/><path fill="#68e1fd" d="M287.75 45.99s6.42 3.19 7.8 1.27 1.24-2.72 1.24-2.72l1 .71s1.53 3.84-2.06 4.89-7.18-1.2-7.18-1.2Z"/><path fill="url(#i)" d="M323.14 48.39s6.42 3.19 7.8 1.27 1.24-2.72 1.24-2.72l1 .71s1.53 3.84-2.06 4.89-7.18-1.2-7.18-1.2Z" transform="translate(-35.39 -2.4)"/><path fill="url(#j)" d="M327.67 81.79C336 74.12 345 67.22 354 60.33c3.59-2.75 7.4-5.6 11.87-6.22 1.08-.15 4.28-.07 4.12 1s-3.24.57-3.66.7c-3 .92-2.77 1.54-2 3.94s.39 4.47-1.18 5.91c-1.21 1.11-6.94 3.16-8.4 3.91-4 2.06-7.26 5.3-10.46 8.48l-4.79 4.75c-1.56 1.57-3.13 3.13-4.56 4.83a29.86 29.86 0 0 1-3.94 4.26 6.6 6.6 0 0 1-5.37 1.59c-1.89-.4-2.85-.33-5.94-2.86a39.27 39.27 0 0 1-5.4-5.54c-.21-.29 7.07-5.56 9.14-5.7s2.13 4.35 4.24 2.41Z" transform="translate(-35.39 -2.4)"/><path fill="#25233a" d="M278.14 109.93s-.89 17.56 5.82 22.06 29.74 2.53 29.74 2.53 24.31 45.43 24.15 45 7-4 7-4l-16.76-54.56-30.48-11.51Z"/><path fill="#68e1fd" d="M371.33 23.94v18a4.68 4.68 0 0 1-4.72 4.66h-3.56a4.67 4.67 0 0 1-4.67-4.67v-18a4.68 4.68 0 0 1 4.67-4.68h3.56a4.69 4.69 0 0 1 4.72 4.69Z"/><path fill="url(#k)" d="M406.72 26.34V40.4a4.68 4.68 0 0 1-4.72 4.67h-3.56a4.67 4.67 0 0 1-4.67-4.67V26.34a4.68 4.68 0 0 1 4.67-4.68H402a4.69 4.69 0 0 1 4.72 4.68Z" transform="translate(-35.39 -2.4)"/><path fill="none" stroke="#000" stroke-linecap="round" stroke-miterlimit="10" stroke-width="3" d="M354.4 37.91v5.56a6.41 6.41 0 0 0 6.41 6.41h7.94a6.41 6.41 0 0 0 6.41-6.41v-5.56M364.78 49.88v83.72"/><path fill="#25233a" d="M343.04 188.07a.86.86 0 0 0 1.26.53c2.77-.81 5.5-1.76 8.23-2.7 2.56-.88 5.22-1.83 7.06-3.82a1.08 1.08 0 0 0 .35-.62 1.1 1.1 0 0 0-.46-.81 9.82 9.82 0 0 0-11.16-1.29c-.87.49-1.89 1.14-2.78.69a2.67 2.67 0 0 1-1-1.25l-1.34-2.57s-2.9 1.82-3.14 2.09c-.72.83-.68 1.15-.44 2.2.59 2.55 2.24 5.22 3.42 7.55ZM361.9 173.7c.15.35.33.75.7.85a1.17 1.17 0 0 0 .79-.14 88.2 88.2 0 0 0 13.42-7.89 11.37 11.37 0 0 0-13.28-1.07c-.67-1.3-1.15-3.56-2.73-3.06a5.72 5.72 0 0 0-2.67 3.36c-.35 2.48 2.88 5.72 3.77 7.95Z"/><path fill="url(#l)" d="M342.12 31.7c-.32 2.84-1 5.76-2.74 8-2.7 3.38-7.69 4.45-11.78 3a15 15 0 0 1-8.74-9 24.88 24.88 0 0 1-.86-12.76 12.68 12.68 0 0 1 2.11-5.68c1.93-2.52 5.22-3.57 8.36-4.06 3.82-.6 9.79-.39 12.13 3.34 2.67 4.29 2.06 12.38 1.52 17.16Z" transform="translate(-35.39 -2.4)"/><path fill="#25233a" d="M306.61 12.5c-1.77 4-6.29 5.71-10.33 7.28s-8.48 3.83-9.55 8a3.88 3.88 0 0 1-.74-2.89c-.66.32-.55 7.35.17 10.78.61 2.92.63 5.95 1.25 8.87s2 5.88 4.53 7.44A11.7 11.7 0 0 1 278 45.91l.86 4.47a22.1 22.1 0 0 1-7.83-14.49 32.83 32.83 0 0 1 2.49-16.52c.8-1.93 1.33-4 2.19-5.87 7.26-16.15 21.48-14.2 25.84-12.18 4.06 1.88 6.98 6.83 5.06 11.18Z"/><path fill="#68e1fd" d="M287.23 65.6c1.31 5.49 1.25 7.37 2.06 11a20.08 20.08 0 0 1-10.11 7.55 2.8 2.8 0 0 1-1.66.15 3.27 3.27 0 0 1-1.57-1.49 28.43 28.43 0 0 1-4.61-15.28c0-4.22 2.39-17.33 7.91-16.4 2.5.42 3.69 2.6 4.53 4.59a49.56 49.56 0 0 1 3.45 9.88Z"/><path fill="url(#m)" d="M322.62 68c1.31 5.49 1.25 7.37 2.06 11a20.08 20.08 0 0 1-10.11 7.55 2.8 2.8 0 0 1-1.66.15 3.27 3.27 0 0 1-1.57-1.49 28.43 28.43 0 0 1-4.61-15.28c0-4.22 2.39-17.33 7.91-16.4 2.5.42 3.69 2.6 4.53 4.59a49.56 49.56 0 0 1 3.45 9.88Z" transform="translate(-35.39 -2.4)"/><path fill="url(#n)" d="M387.33 35.94c-.06.65-.3 1.27-.41 1.91-.22 1.19 0 2.42-.24 3.59s-1.21 2.38-2.4 2.22c-1-.13-1.67-1.18-2.14-2.12-.37-.73-1.12-1.39-1.48-2.13a.77.77 0 0 0 .47-.17c2.63-2.24 1.87-5.24 3.43-8.15a.8.8 0 0 1 .09-.14 2 2 0 0 1 1.35.73 5.08 5.08 0 0 1 .8 1.53 6.48 6.48 0 0 1 .53 2.73Z" transform="translate(-35.39 -2.4)"/><path fill="url(#o)" d="M324.32 251.4a4.25 4.25 0 0 1 .8.07v-8.88a31.32 31.32 0 0 0-.77-7 5.06 5.06 0 0 1-3.38-8.83 31.25 31.25 0 0 0-3.14-4.56 5.07 5.07 0 0 1-6.88-6.2 31.93 31.93 0 0 0-35.9.29 4.94 4.94 0 0 1 .17 1.28 5.07 5.07 0 0 1-5.07 5.07 4.83 4.83 0 0 1-1.66-.29 31.68 31.68 0 0 0-2.6 3.68 5.07 5.07 0 0 1-2.35 9.56 4.92 4.92 0 0 1-1.44-.21 32 32 0 0 0-.81 7.17v9.34a5 5 0 0 1 2.25-.53 5.07 5.07 0 1 1 0 10.13 5 5 0 0 1-2.25-.53v16.83a5 5 0 0 1 2.25-.53 5.07 5.07 0 0 1 0 10.14 5 5 0 0 1-2.25-.53v16.33h63.86v-15.83a4.25 4.25 0 0 1-.8.07 5.07 5.07 0 0 1 0-10.14 4.25 4.25 0 0 1 .8.07v-15.91a4.25 4.25 0 0 1-.8.07 5.07 5.07 0 0 1 0-10.13Zm-10.13-20.84a5.07 5.07 0 1 1-5.07-5.07 5.07 5.07 0 0 1 5.07 5.07Zm-30.41 25.9a5.07 5.07 0 1 1-5.07-5.06 5.07 5.07 0 0 1 5.07 5.06Zm-3.52-12.95a5.07 5.07 0 1 1 5.07 5.07 5.07 5.07 0 0 1-5.07-5.07Zm5.07 20.84a5.07 5.07 0 1 1-5.07 5.07 5.07 5.07 0 0 1 5.07-5.07Zm3.52-7.89a5.07 5.07 0 1 1 5.07 5.07 5.06 5.06 0 0 1-5.07-5.07Zm6.61-12.95a5.07 5.07 0 1 1 5.07 5.07 5.07 5.07 0 0 1-5.07-5.07Zm5.07 20.84a5.07 5.07 0 1 1-5.07 5.07 5.07 5.07 0 0 1 5.07-5.07Zm3.52-7.89a5.07 5.07 0 1 1 5.07 5.07 5.06 5.06 0 0 1-5.07-5.07Zm-3.52-43.92a5.07 5.07 0 1 1-5.07 5.07 5.07 5.07 0 0 1 5.07-5.07Zm-6.61 13a5.07 5.07 0 1 1-5.07 5.07 5.06 5.06 0 0 1 5.07-5.12Zm-8.59-13a5.07 5.07 0 1 1-5.07 5.07 5.07 5.07 0 0 1 5.07-5.07Zm-6.62 13a5.07 5.07 0 1 1-5.07 5.07 5.07 5.07 0 0 1 5.07-5.12Zm-13.65 18a5.07 5.07 0 1 1 5.06 5.07 5.07 5.07 0 0 1-5.06-5.1Zm0 25.91a5.07 5.07 0 1 1 5.06 5.06 5.07 5.07 0 0 1-5.06-5.09Zm5.06 31a5.07 5.07 0 1 1 5.07-5.07 5.07 5.07 0 0 1-5.07 5.01Zm3.52-18a5.07 5.07 0 1 1 5.07 5.07 5.07 5.07 0 0 1-5.07-5.15Zm11.69 18a5.07 5.07 0 1 1 5.07-5.07 5.07 5.07 0 0 1-5.07 5.01Zm3.52-18a5.07 5.07 0 1 1 5.07 5.07 5.07 5.07 0 0 1-5.07-5.15Zm11.68 18a5.07 5.07 0 1 1 5.07-5.07 5.07 5.07 0 0 1-5.07 5.01Zm3.52-18a5.07 5.07 0 1 1 5.07 5.07 5.07 5.07 0 0 1-5.07-5.15Zm16.76 12.95a5.07 5.07 0 1 1-5.07-5.07 5.07 5.07 0 0 1 5.07 4.99Zm0-25.9a5.07 5.07 0 1 1-5.07-5.07 5.07 5.07 0 0 1 5.07 4.99Zm-5.07-20.84a5.07 5.07 0 1 1 5.07-5.07 5.07 5.07 0 0 1-5.07 4.99Z" transform="translate(-35.39 -2.4)"/></svg>